<svg id="Layer_1" data-name="Layer 1" xmlns="http://www.w3.org/2000/svg" viewBox="0 0 225.67 455.43"><defs><style>.cls-1{fill:#f26238;}</style></defs><path class="cls-1" d="M179.68,226.94l185.67,67.58v77.77L179.68,304.71V226.94m-20-28.56V315.21a5,5,0,0,0,3.29,4.7l222.38,80.94V284a5,5,0,0,0-3.29-4.7L159.68,198.38Z" transform="translate(-159.68 -28.87)"/><path class="cls-1" d="M382.06,405.5,166.39,484a5,5,0,0,1-6.71-4.7V369.61a5,5,0,0,1,3.29-4.7l215.67-78.5a5,5,0,0,1,6.71,4.7V400.8A5,5,0,0,1,382.06,405.5Z" transform="translate(-159.68 -28.87)"/><path class="cls-1" d="M347.1,29.18,163,96.2a5,5,0,0,0-3.29,4.69V210.58a5,5,0,0,0,6.71,4.7l184.13-67a5,5,0,0,0,3.29-4.69V33.88A5,5,0,0,0,347.1,29.18Z" transform="translate(-159.68 -28.87)"/></svg>